HIERARCHY
ROOT Hips
{
	OFFSET 0.000000 0.000000 0.000000
	CHANNELS 6 Xposition Yposition Zposition Zrotation Yrotation Xrotation 
	JOINT LHipJoint
	{
		OFFSET 0.000000 0.000000 0.000000
		CHANNELS 3 Zrotation Yrotation Xrotation
		JOINT LeftUpLeg
		{
			OFFSET 1.363060 -1.794630 0.839290
			CHANNELS 3 Zrotation Yrotation Xrotation
			JOINT LeftLeg
			{
				OFFSET 2.448110 -6.726130 0.000000
				CHANNELS 3 Zrotation Yrotation Xrotation
				JOINT LeftFoot
				{
					OFFSET 2.562200 -7.039590 0.000000
					CHANNELS 3 Zrotation Yrotation Xrotation
					JOINT LeftToeBase
					{
						OFFSET 0.157640 -0.433110 2.322550
						CHANNELS 3 Zrotation Yrotation Xrotation
						End Site
						{
							OFFSET 0.000000 0.000000 0.000000
						}
					}
				}
			}
		}
	}
	JOINT RHipJoint
	{
		OFFSET 0.000000 0.000000 0.000000
		CHANNELS 3 Zrotation Yrotation Xrotation
		JOINT RightUpLeg
		{
			OFFSET -1.305520 -1.794630 0.839290
			CHANNELS 3 Zrotation Yrotation Xrotation
			JOINT RightLeg
			{
				OFFSET -2.542530 -6.985550 0.000000
				CHANNELS 3 Zrotation Yrotation Xrotation
				JOINT RightFoot
				{
					OFFSET -2.568260 -7.056230 0.000000
					CHANNELS 3 Zrotation Yrotation Xrotation
					JOINT RightToeBase
					{
						OFFSET -0.164730 -0.452590 2.363150
						CHANNELS 3 Zrotation Yrotation Xrotation
						End Site
						{
							OFFSET 0.000000 0.000000 0.000000
						}
					}
				}
			}
		}
	}
	JOINT LowerBack
	{
		OFFSET 0.000000 0.000000 0.000000
		CHANNELS 3 Zrotation Yrotation Xrotation
		JOINT Spine
		{
			OFFSET 0.028270 2.035590 -0.193380
			CHANNELS 3 Zrotation Yrotation Xrotation
			JOINT Spine1
			{
				OFFSET 0.056720 2.048850 -0.042750
				CHANNELS 3 Zrotation Yrotation Xrotation
				JOINT Neck
				{
					OFFSET 0.000000 0.000000 0.000000
					CHANNELS 3 Zrotation Yrotation Xrotation
					JOINT Neck1
					{
						OFFSET -0.054170 1.746240 0.172020
						CHANNELS 3 Zrotation Yrotation Xrotation
						JOINT Head
						{
							OFFSET 0.104070 1.761360 -0.123970
							CHANNELS 3 Zrotation Yrotation Xrotation
							End Site
							{
								OFFSET 0.000000 0.000000 0.000000
							}
						}
					}
				}
				JOINT LeftShoulder
				{
					OFFSET 0.000000 0.000000 0.000000
					CHANNELS 3 Zrotation Yrotation Xrotation
					JOINT LeftArm
					{
						OFFSET 3.362410 1.200890 -0.311210
						CHANNELS 3 Zrotation Yrotation Xrotation
						JOINT LeftForeArm
						{
							OFFSET 4.983000 -0.000000 -0.000000
							CHANNELS 3 Zrotation Yrotation Xrotation
							JOINT LeftHand
							{
								OFFSET 3.483560 -0.000000 -0.000000
								CHANNELS 3 Zrotation Yrotation Xrotation
								JOINT LeftFingerBase
								{
									OFFSET 0.000000 0.000000 0.000000
									CHANNELS 3 Zrotation Yrotation Xrotation
									JOINT LeftHandIndex1
									{
										OFFSET 0.715260 -0.000000 -0.000000
										CHANNELS 3 Zrotation Yrotation Xrotation
										End Site
										{
											OFFSET 0.000000 0.000000 0.000000
										}
									}
								}
								JOINT LThumb
								{
									OFFSET 0.000000 0.000000 0.000000
									CHANNELS 3 Zrotation Yrotation Xrotation
									End Site
									{
										OFFSET 0.000000 0.000000 0.000000
									}
								}
							}
						}
					}
				}
				JOINT RightShoulder
				{
					OFFSET 0.000000 0.000000 0.000000
					CHANNELS 3 Zrotation Yrotation Xrotation
					JOINT RightArm
					{
						OFFSET -3.136600 1.374050 -0.404650
						CHANNELS 3 Zrotation Yrotation Xrotation
						JOINT RightForeArm
						{
							OFFSET -5.241900 -0.000000 -0.000000
							CHANNELS 3 Zrotation Yrotation Xrotation
							JOINT RightHand
							{
								OFFSET -3.444170 -0.000000 -0.000000
								CHANNELS 3 Zrotation Yrotation Xrotation
								JOINT RightFingerBase
								{
									OFFSET 0.000000 0.000000 0.000000
									CHANNELS 3 Zrotation Yrotation Xrotation
									JOINT RightHandIndex1
									{
										OFFSET -0.622530 -0.000000 -0.000000
										CHANNELS 3 Zrotation Yrotation Xrotation
										End Site
										{
											OFFSET 0.000000 0.000000 0.000000
										}
									}
								}
								JOINT RThumb
								{
									OFFSET 0.000000 0.000000 0.000000
									CHANNELS 3 Zrotation Yrotation Xrotation
									End Site
									{
										OFFSET 0.000000 0.000000 0.000000
									}
								}
							}
						}
					}
				}
			}
		}
	}
}
MOTION
Frames: 7
Frame Time: 0.008333
-7.401845 17.785195 11.357677 167.714772 -55.932193 -169.218064 -1.420145 2.605782 3.297219 -20.926365 2.931344 8.197841 -0.366808 3.666043 13.122618 0.150254 -6.716380 4.131943 1.553100 -7.865500 -22.306200 -0.488447 -1.735957 0.548271 21.421246 3.726161 -26.329497 -2.100340 -9.332815 27.051504 1.605757 -12.068638 4.909666 -0.793300 -5.685300 15.874100 -6.653095 -4.006098 7.422853 3.439255 -5.929715 1.509308 7.584801 -3.143903 -4.116921 -12.694735 -12.513976 3.250916 12.830410 -28.873369 28.681006 3.360400 -14.262600 16.651300 -5.640994 -1.037863 -1.138627 -84.287162 -7.630849 25.724795 21.388961 -29.032681 -6.583129 -0.741535 -1.947143 4.309948 17.875559 21.152121 7.492600 -7.125000 0.000000 0.000000 -11.174100 53.920400 -2.474200 5.393773 2.003121 -0.666154 83.322792 -5.882048 2.504300 -17.816064 25.749290 -4.086754 0.321308 -0.091157 7.207807 -16.302344 6.430534 -1.928500 7.125000 0.000000 0.000000 7.446200 -23.240500 3.936000 
-7.299206 17.781718 11.443425 167.227237 -56.345469 -168.659887 -1.455487 2.571936 3.275857 -21.027245 3.167141 7.618782 -0.386996 3.589002 12.904270 0.174065 -7.216776 3.897256 1.405100 -7.498100 -21.199600 -0.487245 -1.720948 0.551480 20.717358 4.358207 -26.568437 -2.088313 -9.319260 26.985732 1.551843 -11.834000 5.122800 -0.795000 -5.691300 15.891400 -7.037224 -4.025490 7.590450 3.398342 -6.005736 1.557423 7.771531 -3.181667 -4.083145 -12.571369 -12.480657 2.954129 12.786395 -28.682500 28.729165 3.337500 -14.131700 16.673600 -5.639516 -1.048636 -1.136975 -84.283015 -7.856308 25.667227 21.458041 -29.111139 -6.621178 -0.742866 -1.958094 4.200183 17.947369 21.325159 7.580800 -7.125000 0.000000 0.000000 -11.174900 54.118700 -2.528700 5.394064 2.006200 -0.663193 83.343486 -5.514102 2.450057 -17.858640 25.812553 -4.108095 0.316783 -0.089753 6.889265 -16.083089 6.539735 -1.933300 7.125000 0.000000 0.000000 7.607300 -23.134900 4.041200 
-7.201336 17.775458 11.530464 166.769964 -56.728321 -168.169292 -1.489366 2.537176 3.253904 -21.109500 3.496455 6.980488 -0.383703 3.570090 12.856709 0.202826 -7.973319 3.776272 1.206900 -6.969600 -19.625300 -0.486669 -1.704190 0.555330 19.998415 4.965968 -26.776255 -2.080849 -9.311388 26.947368 1.477115 -11.468020 5.320261 -0.742800 -5.505600 15.356600 -7.336844 -4.069368 7.774557 3.366167 -6.106465 1.607761 7.924509 -3.232935 -4.057024 -12.581895 -12.399416 2.735706 12.870621 -28.419610 28.689952 3.408500 -13.990000 16.675000 -5.640568 -1.050263 -1.136236 -84.291411 -7.991433 25.470311 21.512948 -29.174421 -6.650151 -0.736915 -1.970957 4.236978 17.846228 21.549868 7.604900 -7.125000 0.000000 0.000000 -11.388800 54.336900 -2.639000 5.394046 2.012490 -0.656650 83.346476 -5.151389 2.300134 -17.882510 25.853661 -4.120520 0.312113 -0.095073 7.065538 -15.949715 6.744342 -1.976900 7.125000 0.000000 0.000000 7.700700 -22.924000 4.129300 
-7.104162 17.767112 11.613530 166.015793 -57.129715 -167.557736 -1.515282 2.499111 3.228054 -21.356182 3.638151 6.504972 -0.363662 3.623775 13.009320 0.221952 -8.571060 3.685858 0.972400 -6.277900 -17.592900 -0.484654 -1.686281 0.560303 19.165511 5.410618 -26.848899 -2.074721 -9.299798 26.910994 1.339523 -10.769850 5.663872 -0.468200 -4.388500 12.172400 -7.752143 -4.101770 8.083280 3.250370 -6.212448 1.660828 8.025328 -3.279910 -4.094499 -12.625276 -12.305718 2.726569 13.155645 -28.215061 28.536917 3.572200 -13.887800 16.631700 -5.638022 -1.041929 -1.136461 -84.164861 -8.016482 25.403462 21.556418 -29.231156 -6.677314 -0.726646 -1.969512 4.163999 17.743860 21.521425 7.547600 -7.125000 0.000000 0.000000 -11.486900 54.284700 -2.647500 5.390254 2.024887 -0.651284 83.452362 -4.975992 2.309398 -17.978729 25.982802 -4.165340 0.315478 -0.098056 7.140919 -16.121234 6.857428 -2.033000 7.125000 0.000000 0.000000 7.568700 -22.798700 4.079200 
-7.009472 17.761746 11.688944 165.238350 -57.602035 -166.932308 -1.539736 2.460639 3.200830 -21.600896 3.636078 6.085920 -0.349139 3.679021 13.157916 0.235240 -8.978532 3.600611 0.850500 -5.881700 -16.441500 -0.480718 -1.666513 0.566479 18.348253 5.782274 -26.832914 -2.073780 -9.301027 26.931858 1.178223 -9.804542 5.706589 -0.204700 -2.913200 8.037200 -8.161058 -4.120085 8.358653 3.119184 -6.299588 1.714884 8.093524 -3.318782 -4.115805 -12.636707 -12.219843 2.629776 13.412575 -28.108265 28.534227 3.691900 -13.816500 16.703500 -5.634236 -1.031343 -1.138660 -84.014708 -8.012574 25.551121 21.618906 -29.313195 -6.718579 -0.720417 -1.975024 3.807424 17.815959 21.537434 7.586800 -7.125000 0.000000 0.000000 -11.415100 54.316900 -2.639600 5.383967 2.035615 -0.648893 83.640538 -4.878010 2.216909 -18.133792 26.191492 -4.238466 0.319122 -0.102062 6.956294 -16.289924 7.100583 -2.128700 7.125000 0.000000 0.000000 7.435100 -22.536300 4.050900 
-6.917861 17.751909 11.765153 164.646755 -58.090417 -166.426196 -1.569662 2.423117 3.174725 -21.749022 3.835848 5.527288 -0.333837 3.710671 13.245402 0.258881 -9.719833 3.405669 0.917000 -6.101500 -17.079200 -0.476772 -1.644275 0.569933 17.515850 6.380765 -26.803757 -2.088549 -9.336964 27.058846 1.068632 -9.038724 5.430826 -0.134500 -2.364000 6.512600 -8.382449 -4.121363 8.526425 2.994682 -6.334525 1.808713 8.036980 -3.343662 -4.045041 -12.468970 -12.155098 2.426849 13.527252 -27.980262 28.583693 3.724400 -13.710200 16.752200 -5.637652 -1.034686 -1.136174 -83.886336 -8.193481 25.855859 21.580946 -29.269111 -6.694182 -0.743176 -1.995131 3.011209 18.397958 21.699235 7.916800 -7.125000 0.000000 0.000000 -10.846300 54.611600 -2.583900 5.379794 2.043243 -0.648011 83.834196 -4.737338 2.237461 -18.260838 26.362914 -4.298918 0.325902 -0.106855 6.495244 -16.536265 7.436313 -2.265700 7.125000 0.000000 0.000000 7.241500 -22.172000 4.004400 
-6.826549 17.737502 11.843946 163.771608 -58.570619 -165.659136 -1.605019 2.372067 3.142396 -22.088740 3.920652 4.929636 -0.306237 3.797150 13.482465 0.282942 -10.460895 3.080244 1.042700 -6.494000 -18.224500 -0.472482 -1.620838 0.577125 16.438889 7.179414 -26.796716 -2.110982 -9.387597 27.221890 0.980770 -8.418474 5.182576 -0.131300 -2.335400 6.433600 -8.689919 -4.063483 8.802290 2.860153 -6.315884 1.811988 8.020449 -3.316177 -4.187646 -12.385759 -12.103236 2.509432 13.596005 -27.823458 28.528217 3.784200 -13.630500 16.671200 -5.641635 -1.036341 -1.138012 -83.859941 -8.211353 26.364088 21.502998 -29.176057 -6.645297 -0.813184 -2.008566 1.800657 19.846138 21.664235 8.599200 -7.125000 0.000000 0.000000 -9.225400 54.877400 -2.252300 5.374467 2.052070 -0.651128 83.960800 -4.881647 2.251879 -18.440004 26.595162 -4.384623 0.326442 -0.102312 6.122440 -16.526670 7.425565 -2.260300 7.125000 0.000000 0.000000 7.249000 -22.186200 4.006300 
